<svg width="28" height="28" viewBox="0 0 28 28" fill="none" xmlns="http://www.w3.org/2000/svg">
<rect width="28" height="28" rx="14" fill="#8247E5"/>
<rect width="28" height="28" rx="14" fill="url(#paint0_linear_3038_5882)" fill-opacity="0.3"/>
<path d="M18.2771 10.919C17.9671 10.733 17.5642 10.733 17.2232 10.919L14.8055 12.3448L13.1627 13.2747L10.745 14.7005C10.435 14.8865 10.0321 14.8865 9.69113 14.7005L7.76935 13.5847C7.45939 13.3987 7.24241 13.0577 7.24241 12.6858V10.485C7.24241 10.1131 7.42839 9.77211 7.76935 9.58613L9.66013 8.50126C9.97009 8.31528 10.373 8.31528 10.714 8.50126L12.6048 9.58613C12.9147 9.77211 13.1317 10.1131 13.1317 10.485V11.9109L14.7745 10.95V9.52414C14.7745 9.15218 14.5885 8.81122 14.2476 8.62524L10.745 6.57949C10.435 6.39351 10.0321 6.39351 9.69113 6.57949L6.12655 8.62524C5.78559 8.81122 5.59961 9.15218 5.59961 9.52414V13.6466C5.59961 14.0186 5.78559 14.3596 6.12655 14.5455L9.69113 16.5913C10.0011 16.7773 10.404 16.7773 10.745 16.5913L13.1627 15.1965L14.8055 14.2356L17.2232 12.8407C17.5332 12.6548 17.9361 12.6548 18.2771 12.8407L20.1679 13.9256C20.4778 14.1116 20.6948 14.4526 20.6948 14.8245V17.0252C20.6948 17.3972 20.5088 17.7382 20.1679 17.9241L18.2771 19.04C17.9671 19.226 17.5642 19.226 17.2232 19.04L15.3325 17.9551C15.0225 17.7692 14.8055 17.4282 14.8055 17.0562V15.6304L13.1627 16.5913V18.0171C13.1627 18.3891 13.3487 18.73 13.6897 18.916L17.2542 20.9618C17.5642 21.1478 17.9671 21.1478 18.3081 20.9618L21.8727 18.916C22.1826 18.73 22.3996 18.3891 22.3996 18.0171V13.8946C22.3996 13.5227 22.2136 13.1817 21.8727 12.9957L18.2771 10.919Z" fill="white"/>
<defs>
<linearGradient id="paint0_linear_3038_5882" x1="0" y1="0" x2="14" y2="28" gradientUnits="userSpaceOnUse">
<stop stop-color="white"/>
<stop offset="1" stop-color="white" stop-opacity="0"/>
</linearGradient>
</defs>
</svg>
